<svg xmlns="http://www.w3.org/2000/svg" viewBox="0 0 1200 500" fill="none">
  <defs>
    <linearGradient id="gold" x1="0" y1="0" x2="0" y2="1">
      <stop offset="0" stop-color="#fff3bd"/>
      <stop offset="0.18" stop-color="#f0cf78"/>
      <stop offset="0.44" stop-color="#c18a36"/>
      <stop offset="0.7" stop-color="#75461c"/>
      <stop offset="1" stop-color="#dcae59"/>
    </linearGradient>
    <linearGradient id="goldSoft" x1="0" y1="0" x2="1" y2="0">
      <stop offset="0" stop-color="#8f6126"/>
      <stop offset="0.48" stop-color="#edc978"/>
      <stop offset="1" stop-color="#7b4c1d"/>
    </linearGradient>
    <linearGradient id="indigo" x1="0" y1="0" x2="1" y2="1">
      <stop offset="0" stop-color="#506fcb"/>
      <stop offset="0.34" stop-color="#263f8f"/>
      <stop offset="0.68" stop-color="#182452"/>
      <stop offset="1" stop-color="#403279"/>
    </linearGradient>
    <linearGradient id="violet" x1="0" y1="0" x2="1" y2="0">
      <stop offset="0" stop-color="#80539b"/>
      <stop offset="0.48" stop-color="#3b295e"/>
      <stop offset="1" stop-color="#9768a8"/>
    </linearGradient>
    <radialGradient id="pearl">
      <stop offset="0" stop-color="#fff9df"/>
      <stop offset="0.32" stop-color="#e6dbc2"/>
      <stop offset="0.7" stop-color="#9f8b6a"/>
      <stop offset="1" stop-color="#4a3520"/>
    </radialGradient>
    <radialGradient id="blueGem">
      <stop offset="0" stop-color="#708ad8"/>
      <stop offset="0.45" stop-color="#314886"/>
      <stop offset="1" stop-color="#17204a"/>
    </radialGradient>
    <filter id="shadow" x="-45%" y="-45%" width="190%" height="190%">
      <feGaussianBlur in="SourceAlpha" stdDeviation="4.5" result="blur"/>
      <feOffset dy="3" result="offset"/>
      <feColorMatrix in="offset" type="matrix" values="0 0 0 0 0 0 0 0 0 0 0 0 0 0 0 0 0 0 .72 0" result="shade"/>
      <feMerge><feMergeNode in="shade"/><feMergeNode in="SourceGraphic"/></feMerge>
    </filter>
    <filter id="goldGlow" x="-40%" y="-40%" width="180%" height="180%">
      <feGaussianBlur stdDeviation="2.6" result="blur"/>
      <feMerge><feMergeNode in="blur"/><feMergeNode in="SourceGraphic"/></feMerge>
    </filter>
  </defs>

  <!-- Dark carved backing -->
  <path d="M82 50H1118M82 450H1118M50 82V418M1150 82V418" stroke="#070914" stroke-width="40" stroke-linecap="round" opacity=".94"/>

  <!-- Organic woven top edge -->
  <path d="M78 53C150 20 226 72 310 47C395 22 465 72 552 49C630 28 715 69 796 48C886 25 972 72 1122 48" stroke="url(#indigo)" stroke-width="30" stroke-linecap="round"/>
  <path d="M82 43C166 72 244 16 326 46C408 76 492 18 574 47C656 76 738 19 820 48C908 79 995 19 1118 47" stroke="url(#violet)" stroke-width="13" stroke-linecap="round"/>
  <path d="M84 56C169 27 248 70 332 47C414 25 498 69 580 48C662 27 745 68 828 48C915 27 1001 67 1116 48" stroke="#5b3515" stroke-width="14" stroke-linecap="round"/>
  <path d="M84 56C169 27 248 70 332 47C414 25 498 69 580 48C662 27 745 68 828 48C915 27 1001 67 1116 48" stroke="url(#gold)" stroke-width="9" stroke-linecap="round"/>
  <path d="M88 35C170 30 248 54 331 39C416 24 500 55 584 40C667 25 748 54 833 40C916 27 1003 51 1111 39" stroke="#fff0ae" stroke-width="2.6" stroke-linecap="round" opacity=".82"/>

  <!-- Organic woven bottom edge -->
  <path d="M78 447C150 480 226 428 310 453C395 478 465 428 552 451C630 472 715 431 796 452C886 475 972 428 1122 452" stroke="url(#indigo)" stroke-width="30" stroke-linecap="round"/>
  <path d="M82 457C166 428 244 484 326 454C408 424 492 482 574 453C656 424 738 481 820 452C908 421 995 481 1118 453" stroke="url(#violet)" stroke-width="13" stroke-linecap="round"/>
  <path d="M84 444C169 473 248 430 332 453C414 475 498 431 580 452C662 473 745 432 828 452C915 473 1001 433 1116 452" stroke="#5b3515" stroke-width="14" stroke-linecap="round"/>
  <path d="M84 444C169 473 248 430 332 453C414 475 498 431 580 452C662 473 745 432 828 452C915 473 1001 433 1116 452" stroke="url(#gold)" stroke-width="9" stroke-linecap="round"/>

  <!-- Organic woven left edge -->
  <path d="M53 78C20 132 73 190 48 248C22 307 72 359 49 422" stroke="url(#indigo)" stroke-width="30" stroke-linecap="round"/>
  <path d="M43 82C72 141 17 195 47 253C76 310 19 361 48 418" stroke="url(#violet)" stroke-width="13" stroke-linecap="round"/>
  <path d="M56 84C27 142 70 196 47 254C25 312 69 363 48 416" stroke="#5b3515" stroke-width="14" stroke-linecap="round"/>
  <path d="M56 84C27 142 70 196 47 254C25 312 69 363 48 416" stroke="url(#gold)" stroke-width="9" stroke-linecap="round"/>

  <!-- Organic woven right edge -->
  <path d="M1147 78C1180 132 1127 190 1152 248C1178 307 1128 359 1151 422" stroke="url(#indigo)" stroke-width="30" stroke-linecap="round"/>
  <path d="M1157 82C1128 141 1183 195 1153 253C1124 310 1181 361 1152 418" stroke="url(#violet)" stroke-width="13" stroke-linecap="round"/>
  <path d="M1144 84C1173 142 1130 196 1153 254C1175 312 1131 363 1152 416" stroke="#5b3515" stroke-width="14" stroke-linecap="round"/>
  <path d="M1144 84C1173 142 1130 196 1153 254C1175 312 1131 363 1152 416" stroke="url(#gold)" stroke-width="9" stroke-linecap="round"/>

  <!-- Leaf flourishes near the corners -->
  <g fill="url(#gold)" stroke="#6d431c" stroke-width="3" filter="url(#shadow)">
    <path d="M78 37C93 20 113 19 126 28C109 29 97 38 90 53C85 49 81 44 78 37Z"/>
    <path d="M61 76C41 67 30 51 32 35C43 50 55 57 72 57C70 64 66 70 61 76Z"/>
    <path d="M1122 37C1107 20 1087 19 1074 28C1091 29 1103 38 1110 53C1115 49 1119 44 1122 37Z"/>
    <path d="M1139 76C1159 67 1170 51 1168 35C1157 50 1145 57 1128 57C1130 64 1134 70 1139 76Z"/>
    <path d="M78 463C93 480 113 481 126 472C109 471 97 462 90 447C85 451 81 456 78 463Z"/>
    <path d="M61 424C41 433 30 449 32 465C43 450 55 443 72 443C70 436 66 430 61 424Z"/>
    <path d="M1122 463C1107 480 1087 481 1074 472C1091 471 1103 462 1110 447C1115 451 1119 456 1122 463Z"/>
    <path d="M1139 424C1159 433 1170 449 1168 465C1157 450 1145 443 1128 443C1130 436 1134 430 1139 424Z"/>
  </g>

  <!-- Four ornamental corner clusters -->
  <g filter="url(#shadow)">
    <g transform="translate(54 54)">
      <path d="M0-42C9-27 22-22 39-24C27-12 24 4 32 20C17 16 5 22 0 39C-6 22-18 16-33 20C-24 4-27-12-39-24C-22-22-9-27 0-42Z" fill="url(#gold)" stroke="#603918" stroke-width="4"/>
      <path d="M0-32C8-20 18-16 30-18C20-8 18 4 24 15C12 12 4 17 0 30C-4 17-12 12-24 15C-18 4-20-8-30-18C-18-16-8-20 0-32Z" fill="url(#indigo)" stroke="#e1b65d" stroke-width="3"/>
      <path d="M0-25L9-9L25 0L9 9L0 25L-9 9L-25 0L-9-9Z" fill="url(#goldSoft)" stroke="#71481f" stroke-width="3"/>
      <circle r="10" fill="url(#pearl)" stroke="#8a6027" stroke-width="3"/>
    </g>
    <g transform="translate(1146 54)">
      <path d="M0-42C9-27 22-22 39-24C27-12 24 4 32 20C17 16 5 22 0 39C-6 22-18 16-33 20C-24 4-27-12-39-24C-22-22-9-27 0-42Z" fill="url(#gold)" stroke="#603918" stroke-width="4"/>
      <path d="M0-32C8-20 18-16 30-18C20-8 18 4 24 15C12 12 4 17 0 30C-4 17-12 12-24 15C-18 4-20-8-30-18C-18-16-8-20 0-32Z" fill="url(#indigo)" stroke="#e1b65d" stroke-width="3"/>
      <path d="M0-25L9-9L25 0L9 9L0 25L-9 9L-25 0L-9-9Z" fill="url(#goldSoft)" stroke="#71481f" stroke-width="3"/>
      <circle r="10" fill="url(#pearl)" stroke="#8a6027" stroke-width="3"/>
    </g>
    <g transform="translate(54 446)">
      <path d="M0-42C9-27 22-22 39-24C27-12 24 4 32 20C17 16 5 22 0 39C-6 22-18 16-33 20C-24 4-27-12-39-24C-22-22-9-27 0-42Z" fill="url(#gold)" stroke="#603918" stroke-width="4"/>
      <path d="M0-32C8-20 18-16 30-18C20-8 18 4 24 15C12 12 4 17 0 30C-4 17-12 12-24 15C-18 4-20-8-30-18C-18-16-8-20 0-32Z" fill="url(#indigo)" stroke="#e1b65d" stroke-width="3"/>
      <path d="M0-25L9-9L25 0L9 9L0 25L-9 9L-25 0L-9-9Z" fill="url(#goldSoft)" stroke="#71481f" stroke-width="3"/>
      <circle r="10" fill="url(#pearl)" stroke="#8a6027" stroke-width="3"/>
    </g>
    <g transform="translate(1146 446)">
      <path d="M0-42C9-27 22-22 39-24C27-12 24 4 32 20C17 16 5 22 0 39C-6 22-18 16-33 20C-24 4-27-12-39-24C-22-22-9-27 0-42Z" fill="url(#gold)" stroke="#603918" stroke-width="4"/>
      <path d="M0-32C8-20 18-16 30-18C20-8 18 4 24 15C12 12 4 17 0 30C-4 17-12 12-24 15C-18 4-20-8-30-18C-18-16-8-20 0-32Z" fill="url(#indigo)" stroke="#e1b65d" stroke-width="3"/>
      <path d="M0-25L9-9L25 0L9 9L0 25L-9 9L-25 0L-9-9Z" fill="url(#goldSoft)" stroke="#71481f" stroke-width="3"/>
      <circle r="10" fill="url(#pearl)" stroke="#8a6027" stroke-width="3"/>
    </g>
  </g>

  <!-- Sculpted center ornaments -->
  <g filter="url(#goldGlow)">
    <g transform="translate(600 48)">
      <path d="M-44 0C-28-8-19-19-13-34C-3-20 3-13 14-9C5-2 1 5 0 16C-8 7-16 3-28 3C-21-2-17-6-15-12C-25-5-34-2-44 0Z" fill="url(#gold)" stroke="#633b18" stroke-width="4"/>
      <path d="M44 0C28-8 19-19 13-34C3-20-3-13-14-9C-5-2-1 5 0 16C8 7 16 3 28 3C21-2 17-6 15-12C25-5 34-2 44 0Z" fill="url(#gold)" stroke="#633b18" stroke-width="4"/>
      <path d="M0-28L18 0L0 28L-18 0Z" fill="url(#blueGem)" stroke="#e5bd66" stroke-width="5"/>
      <path d="M0-18L9 0L0 18L-9 0Z" fill="url(#goldSoft)"/>
    </g>
    <g transform="translate(600 452) scale(1 -1)">
      <path d="M-44 0C-28-8-19-19-13-34C-3-20 3-13 14-9C5-2 1 5 0 16C-8 7-16 3-28 3C-21-2-17-6-15-12C-25-5-34-2-44 0Z" fill="url(#gold)" stroke="#633b18" stroke-width="4"/>
      <path d="M44 0C28-8 19-19 13-34C3-20-3-13-14-9C-5-2-1 5 0 16C8 7 16 3 28 3C21-2 17-6 15-12C25-5 34-2 44 0Z" fill="url(#gold)" stroke="#633b18" stroke-width="4"/>
      <path d="M0-28L18 0L0 28L-18 0Z" fill="url(#blueGem)" stroke="#e5bd66" stroke-width="5"/>
      <path d="M0-18L9 0L0 18L-9 0Z" fill="url(#goldSoft)"/>
    </g>
  </g>

  <!-- Side medallions -->
  <g filter="url(#shadow)">
    <g transform="translate(48 250)">
      <path d="M0-31L14-15L31 0L14 15L0 31L-14 15L-31 0L-14-15Z" fill="url(#gold)" stroke="#633b18" stroke-width="4"/>
      <circle r="13" fill="url(#blueGem)" stroke="#dfb45d" stroke-width="4"/>
      <circle r="5" fill="url(#pearl)"/>
    </g>
    <g transform="translate(1152 250)">
      <path d="M0-31L14-15L31 0L14 15L0 31L-14 15L-31 0L-14-15Z" fill="url(#gold)" stroke="#633b18" stroke-width="4"/>
      <circle r="13" fill="url(#blueGem)" stroke="#dfb45d" stroke-width="4"/>
      <circle r="5" fill="url(#pearl)"/>
    </g>
  </g>

  <!-- Fine inner gold thread, intentionally subtle -->
  <rect x="77" y="77" width="1046" height="346" rx="10" stroke="#d3aa5b" stroke-width="2.2" opacity=".36"/>
</svg>
